<svg width="566" height="586" viewBox="0 0 566 586" fill="none" xmlns="http://www.w3.org/2000/svg">
<path d="M419.825 348.408C317.939 348.925 301.458 412.547 295.966 466.342L293.469 490.135H272.99L270.493 466.342C265.001 412.547 248.02 348.925 149.63 348.408C133.149 313.232 126.157 284.783 126.157 252.714C126.157 172.541 189.586 97.5362 283.478 97.5362C377.372 97.5362 439.802 172.021 439.802 253.233C439.802 284.783 436.806 313.232 419.825 348.408ZM282.481 0.291992C127.657 0.291992 0.798828 131.676 0.798828 292.541C0.798828 453.927 127.657 585.309 282.481 585.309C438.802 585.309 565.161 453.927 565.161 292.541C565.161 131.677 438.802 0.291992 282.481 0.291992Z" fill="#29B24A"/>
</svg>
