<?xml version="1.0" encoding="UTF-8"?>
<svg id="Layer_2" data-name="Layer 2" xmlns="http://www.w3.org/2000/svg" viewBox="0 0 593.3 338.49">
  <g id="Layer_1-2" data-name="Layer 1">
    <g>
      <path fill="currentColor" d="m29.27,76.23l8.84,62.21h1.83c3.86-44.11,23.58-66.17,59.16-66.17,8.54,0,18.09,1.22,28.66,3.66l-1.83,32.02c-11.79-3.45-22.57-5.18-32.32-5.18-19.92,0-33.85,6.66-41.78,19.97-7.93,13.32-11.89,31.77-11.89,55.35v47.87H0V76.23h29.27Z"/>
      <path fill="currentColor" d="m277.21,170.76h-2.13c-1.42,10.98-5.39,20.94-11.89,29.88-6.51,8.95-15.66,16.06-27.44,21.35-11.79,5.28-25.82,7.93-42.08,7.93-22.16,0-38.88-3.92-50.16-11.74-11.28-7.82-16.92-18.75-16.92-32.78,0-14.84,6.76-26.12,20.28-33.85,13.52-7.72,31.66-11.59,54.43-11.59,28.86,0,53.36,1.22,73.49,3.66l-.31-4.88c-.41-12.81-5.44-22.61-15.09-29.43-9.66-6.81-23.33-10.22-41.01-10.22-11.79,0-23.58,1.07-35.37,3.2-11.79,2.14-22.77,5.14-32.93,9l-3.96-26.83c10.98-4.06,23.12-7.17,36.44-9.3,13.31-2.13,26.78-3.2,40.4-3.2,30.29,0,53.11,5.64,68.46,16.92,15.35,11.28,23.02,26.99,23.02,47.11v89.95h-29.27l-7.93-55.19Zm-98.34,27.6c7.62,4.57,18.14,6.86,31.56,6.86,18.91,0,34.35-4.57,46.35-13.72,11.99-9.15,18.09-22.36,18.3-39.64-20.33-1.22-39.03-1.83-56.11-1.83s-29.17,2.39-38.12,7.17c-8.95,4.78-13.42,11.84-13.42,21.19,0,8.74,3.81,15.4,11.43,19.97Z"/>
      <path fill="currentColor" d="m505.76,225.95l-9.45-57.63h-1.83c-3.05,19.72-11.79,34.97-26.22,45.74-14.44,10.78-33.34,16.16-56.72,16.16-25,0-44.37-5.95-58.09-17.84-13.72-11.89-20.58-28.71-20.58-50.47v-85.69h39.95v82.33c0,14.23,4.93,25.26,14.79,33.09,9.86,7.83,23.63,11.74,41.32,11.74,20.94,0,37.15-5.18,48.64-15.55,11.48-10.37,17.23-25.1,17.23-44.22v-67.39h39.95v149.72h-28.97Z"/>
      <path fill="currentColor" d="m593.3,0v225.95h-40.25V0h40.25Z"/>
      <g>
        <path fill="currentColor" d="m68.81,338.04c-3.73,0-7.05-.85-9.97-2.54-2.92-1.69-5.22-4.03-6.91-7.01-1.69-2.98-2.54-6.39-2.54-10.22s.85-7.31,2.54-10.3c1.69-2.98,4-5.31,6.91-6.98,2.92-1.67,6.24-2.5,9.97-2.5,3.09,0,5.9.6,8.42,1.79,2.52,1.19,4.57,2.99,6.14,5.37l-2.72,2.01c-1.37-1.99-3.09-3.46-5.15-4.4-2.06-.94-4.29-1.42-6.69-1.42-2.99,0-5.68.68-8.05,2.05-2.38,1.37-4.24,3.28-5.59,5.75-1.35,2.46-2.02,5.34-2.02,8.62s.67,6.16,2.02,8.62c1.35,2.46,3.21,4.38,5.59,5.75,2.38,1.37,5.06,2.05,8.05,2.05,2.4,0,4.63-.47,6.69-1.42,2.06-.94,3.77-2.41,5.15-4.4l2.72,2.01c-1.57,2.39-3.62,4.18-6.14,5.37-2.53,1.19-5.33,1.79-8.42,1.79Z"/>
        <path fill="currentColor" d="m105.51,338.04c-3.68,0-6.95-.85-9.82-2.54-2.87-1.69-5.15-4.03-6.84-7.01-1.69-2.98-2.54-6.39-2.54-10.22s.85-7.3,2.54-10.26c1.69-2.96,3.97-5.29,6.84-6.98,2.87-1.69,6.14-2.54,9.82-2.54s6.96.85,9.85,2.54c2.89,1.69,5.17,4.02,6.84,6.98,1.67,2.96,2.5,6.38,2.5,10.26s-.83,7.24-2.5,10.22c-1.67,2.98-3.95,5.32-6.84,7.01-2.89,1.69-6.18,2.54-9.85,2.54Zm0-3.36c2.94,0,5.59-.68,7.94-2.05,2.35-1.37,4.19-3.29,5.52-5.78,1.32-2.49,1.99-5.35,1.99-8.58s-.66-6.16-1.99-8.62c-1.32-2.46-3.16-4.38-5.52-5.75-2.35-1.37-5-2.05-7.94-2.05s-5.58.68-7.91,2.05c-2.33,1.37-4.17,3.28-5.52,5.75-1.35,2.46-2.02,5.34-2.02,8.62s.67,6.09,2.02,8.58c1.35,2.49,3.19,4.42,5.52,5.78,2.33,1.37,4.96,2.05,7.91,2.05Z"/>
        <path fill="currentColor" d="m125.88,302v-3.21h22.95v3.21h-22.95Zm7.06,35.74v-44.92c0-3.23.92-5.83,2.76-7.8,1.84-1.96,4.47-2.95,7.91-2.95,1.42,0,2.82.21,4.19.63,1.37.42,2.5,1.06,3.38,1.9l-1.47,2.84c-.74-.75-1.62-1.29-2.65-1.64-1.03-.35-2.13-.52-3.31-.52-2.35,0-4.14.66-5.37,1.98-1.23,1.32-1.84,3.27-1.84,5.86v6.57l.07,1.79v36.27h-3.68Z"/>
        <path fill="currentColor" d="m146.11,302v-3.21h22.95v3.21h-22.95Zm7.06,35.74v-44.92c0-3.23.92-5.83,2.76-7.8,1.84-1.96,4.47-2.95,7.91-2.95,1.42,0,2.82.21,4.19.63,1.37.42,2.5,1.06,3.38,1.9l-1.47,2.84c-.74-.75-1.62-1.29-2.65-1.64-1.03-.35-2.13-.52-3.31-.52-2.35,0-4.14.66-5.37,1.98-1.23,1.32-1.84,3.27-1.84,5.86v6.57l.07,1.79v36.27h-3.68Z"/>
        <path fill="currentColor" d="m188.25,338.04c-3.87,0-7.29-.85-10.26-2.54-2.97-1.69-5.29-4.03-6.99-7.01s-2.54-6.39-2.54-10.22.8-7.3,2.39-10.26c1.59-2.96,3.79-5.29,6.58-6.98,2.79-1.69,5.93-2.54,9.41-2.54s6.61.82,9.38,2.46c2.77,1.64,4.95,3.94,6.55,6.9,1.59,2.96,2.39,6.38,2.39,10.26,0,.15-.01.31-.04.49-.03.17-.04.36-.04.56h-33.9v-2.91h31.92l-1.47,1.42c.05-3.03-.58-5.76-1.88-8.17-1.3-2.41-3.05-4.3-5.26-5.67-2.21-1.37-4.76-2.05-7.65-2.05s-5.38.68-7.61,2.05c-2.23,1.37-3.98,3.26-5.26,5.67-1.28,2.41-1.91,5.16-1.91,8.25v.67c0,3.18.7,6.01,2.1,8.47,1.4,2.46,3.32,4.38,5.77,5.75,2.45,1.37,5.25,2.05,8.38,2.05,2.45,0,4.74-.45,6.88-1.34,2.13-.9,3.94-2.26,5.41-4.1l2.13,2.46c-1.67,2.09-3.76,3.67-6.29,4.74-2.53,1.07-5.26,1.6-8.2,1.6Z"/>
        <path fill="currentColor" d="m228.25,338.04c-3.87,0-7.29-.85-10.26-2.54-2.97-1.69-5.29-4.03-6.99-7.01-1.69-2.98-2.54-6.39-2.54-10.22s.8-7.3,2.39-10.26c1.59-2.96,3.79-5.29,6.58-6.98,2.79-1.69,5.93-2.54,9.41-2.54s6.61.82,9.38,2.46c2.77,1.64,4.95,3.94,6.55,6.9,1.59,2.96,2.39,6.38,2.39,10.26,0,.15-.01.31-.04.49-.03.17-.04.36-.04.56h-33.9v-2.91h31.92l-1.47,1.42c.05-3.03-.58-5.76-1.88-8.17-1.3-2.41-3.05-4.3-5.26-5.67-2.21-1.37-4.76-2.05-7.65-2.05s-5.38.68-7.61,2.05c-2.23,1.37-3.98,3.26-5.26,5.67-1.28,2.41-1.91,5.16-1.91,8.25v.67c0,3.18.7,6.01,2.1,8.47,1.4,2.46,3.32,4.38,5.77,5.75,2.45,1.37,5.25,2.05,8.38,2.05,2.45,0,4.74-.45,6.88-1.34,2.13-.9,3.94-2.26,5.41-4.1l2.13,2.46c-1.67,2.09-3.76,3.67-6.29,4.74-2.53,1.07-5.26,1.6-8.2,1.6Z"/>
        <path fill="currentColor" d="m280.47,338.12c-3.24,0-6.12-.55-8.64-1.64-2.53-1.09-4.51-2.62-5.96-4.59-1.45-1.96-2.17-4.24-2.17-6.83,0-2.14.47-4.12,1.4-5.93.93-1.82,2.46-3.63,4.6-5.45,2.13-1.82,4.99-3.74,8.57-5.78,3.14-1.84,5.61-3.43,7.43-4.78,1.81-1.34,3.09-2.64,3.82-3.88.74-1.24,1.1-2.59,1.1-4.03,0-2.14-.7-3.85-2.1-5.15-1.4-1.29-3.4-1.94-5.99-1.94-2.75,0-4.89.71-6.44,2.13-1.54,1.42-2.32,3.3-2.32,5.63,0,1.09.17,2.14.52,3.13.34,1,.97,2.1,1.87,3.32.91,1.22,2.17,2.72,3.79,4.51l27.29,29.18-2.21,2.46-28.09-30c-1.72-1.84-3.06-3.46-4.04-4.85-.98-1.39-1.65-2.7-2.02-3.92-.37-1.22-.55-2.5-.55-3.84,0-2.14.5-4,1.51-5.6,1-1.59,2.43-2.84,4.26-3.73,1.84-.9,3.98-1.34,6.44-1.34,2.3,0,4.3.4,5.99,1.19,1.69.8,3,1.93,3.93,3.4.93,1.47,1.4,3.25,1.4,5.34,0,1.84-.43,3.54-1.29,5.11-.86,1.57-2.29,3.13-4.3,4.7-2.01,1.57-4.76,3.35-8.24,5.34-3.24,1.89-5.79,3.61-7.65,5.15-1.86,1.54-3.17,3.05-3.93,4.51-.76,1.47-1.14,3.07-1.14,4.81,0,2.04.56,3.83,1.69,5.37,1.13,1.54,2.68,2.74,4.67,3.58,1.99.85,4.3,1.27,6.95,1.27,3.53,0,6.67-.73,9.41-2.2,2.74-1.47,5.05-3.69,6.91-6.68,1.86-2.98,3.21-6.74,4.04-11.27l3.02.97c-.93,4.93-2.48,9.04-4.63,12.35-2.16,3.31-4.83,5.8-8.02,7.46-3.19,1.67-6.82,2.5-10.88,2.5Z"/>
        <path fill="currentColor" d="m336.66,338.04c-3.19,0-6.17-.47-8.94-1.42-2.77-.94-4.92-2.14-6.44-3.58l1.69-2.98c1.47,1.29,3.43,2.4,5.88,3.32,2.45.92,5.1,1.38,7.94,1.38,4.02,0,6.91-.67,8.68-2.01,1.77-1.34,2.65-3.11,2.65-5.3,0-1.59-.45-2.85-1.36-3.77-.91-.92-2.12-1.63-3.64-2.13-1.52-.5-3.19-.91-5-1.23-1.81-.32-3.63-.68-5.44-1.08-1.81-.4-3.48-.97-5-1.72-1.52-.75-2.73-1.78-3.64-3.1-.91-1.32-1.36-3.07-1.36-5.26,0-1.99.54-3.78,1.62-5.37,1.08-1.59,2.7-2.87,4.85-3.84,2.16-.97,4.85-1.46,8.09-1.46,2.4,0,4.82.35,7.24,1.04,2.43.7,4.4,1.62,5.92,2.76l-1.69,2.98c-1.62-1.24-3.43-2.14-5.44-2.69-2.01-.55-4.04-.82-6.1-.82-3.73,0-6.46.7-8.2,2.09-1.74,1.39-2.61,3.13-2.61,5.22,0,1.64.45,2.95,1.36,3.92.91.97,2.12,1.72,3.64,2.24,1.52.52,3.19.95,5,1.27,1.81.32,3.63.68,5.44,1.08,1.81.4,3.48.96,5,1.68,1.52.72,2.73,1.72,3.64,2.98.91,1.27,1.36,2.97,1.36,5.11s-.58,4.01-1.73,5.6c-1.15,1.59-2.86,2.84-5.11,3.73-2.26.9-5.03,1.34-8.31,1.34Z"/>
        <path fill="currentColor" d="m376.96,298.49c3.14,0,5.87.61,8.2,1.83,2.33,1.22,4.14,3.06,5.44,5.52,1.3,2.46,1.95,5.51,1.95,9.14v22.76h-3.68v-22.46c0-4.38-1.09-7.71-3.27-10-2.18-2.29-5.23-3.43-9.16-3.43-2.99,0-5.59.62-7.8,1.87-2.21,1.24-3.89,2.98-5.04,5.22-1.15,2.24-1.73,4.92-1.73,8.06v20.75h-3.68v-38.95h3.53v10.82l-.51-1.19c1.18-3.08,3.11-5.51,5.81-7.28,2.7-1.77,6.01-2.65,9.93-2.65Z"/>
        <path fill="currentColor" d="m414.17,338.04c-2.84,0-5.31-.46-7.39-1.38-2.08-.92-3.68-2.23-4.78-3.92-1.1-1.69-1.65-3.63-1.65-5.82,0-1.99.45-3.79,1.36-5.41.91-1.62,2.41-2.93,4.52-3.95,2.11-1.02,4.93-1.53,8.46-1.53h14.12v2.91h-14.05c-3.97,0-6.75.75-8.35,2.24-1.59,1.49-2.39,3.36-2.39,5.6,0,2.49.93,4.48,2.79,5.97,1.86,1.49,4.49,2.24,7.87,2.24s5.97-.75,8.2-2.24c2.23-1.49,3.89-3.66,4.96-6.49l1.03,2.54c-1.03,2.84-2.78,5.09-5.26,6.75-2.48,1.67-5.63,2.5-9.45,2.5Zm13.83-.3v-8.88l-.15-1.34v-14.63c0-3.63-.97-6.39-2.91-8.28-1.94-1.89-4.77-2.84-8.49-2.84-2.65,0-5.11.46-7.39,1.38-2.28.92-4.23,2.1-5.85,3.54l-1.84-2.69c1.91-1.74,4.22-3.1,6.91-4.07,2.7-.97,5.52-1.46,8.46-1.46,4.76,0,8.41,1.22,10.96,3.66,2.55,2.44,3.82,6.07,3.82,10.9v24.7h-3.53Z"/>
        <path fill="currentColor" d="m458,338.04c-3.73,0-7.05-.85-9.97-2.54-2.92-1.69-5.22-4.03-6.91-7.01-1.69-2.98-2.54-6.39-2.54-10.22s.85-7.31,2.54-10.3c1.69-2.98,4-5.31,6.91-6.98,2.92-1.67,6.24-2.5,9.97-2.5,3.09,0,5.9.6,8.42,1.79,2.52,1.19,4.57,2.99,6.14,5.37l-2.72,2.01c-1.37-1.99-3.09-3.46-5.15-4.4-2.06-.94-4.29-1.42-6.69-1.42-2.99,0-5.68.68-8.05,2.05-2.38,1.37-4.24,3.28-5.59,5.75-1.35,2.46-2.02,5.34-2.02,8.62s.67,6.16,2.02,8.62c1.35,2.46,3.21,4.38,5.59,5.75,2.38,1.37,5.06,2.05,8.05,2.05,2.4,0,4.63-.47,6.69-1.42,2.06-.94,3.77-2.41,5.15-4.4l2.72,2.01c-1.57,2.39-3.62,4.18-6.14,5.37-2.53,1.19-5.33,1.79-8.42,1.79Z"/>
        <path fill="currentColor" d="m479.7,337.74v-55.37h3.68v55.37h-3.68Zm2.79-10.75l.07-4.7,25.37-23.51h4.71l-16.84,16.04-2.21,1.87-11.11,10.3Zm27.21,10.75l-16.77-21.34,2.5-2.76,18.83,24.1h-4.56Z"/>
        <path fill="currentColor" d="m528.75,338.04c-3.19,0-6.17-.47-8.94-1.42-2.77-.94-4.92-2.14-6.44-3.58l1.69-2.98c1.47,1.29,3.43,2.4,5.88,3.32,2.45.92,5.1,1.38,7.94,1.38,4.02,0,6.91-.67,8.68-2.01,1.77-1.34,2.65-3.11,2.65-5.3,0-1.59-.45-2.85-1.36-3.77-.91-.92-2.12-1.63-3.64-2.13-1.52-.5-3.19-.91-5-1.23-1.81-.32-3.63-.68-5.44-1.08-1.81-.4-3.48-.97-5-1.72-1.52-.75-2.73-1.78-3.64-3.1-.91-1.32-1.36-3.07-1.36-5.26,0-1.99.54-3.78,1.62-5.37,1.08-1.59,2.7-2.87,4.85-3.84,2.16-.97,4.85-1.46,8.09-1.46,2.4,0,4.82.35,7.24,1.04,2.43.7,4.4,1.62,5.92,2.76l-1.69,2.98c-1.62-1.24-3.43-2.14-5.44-2.69-2.01-.55-4.04-.82-6.1-.82-3.73,0-6.46.7-8.2,2.09-1.74,1.39-2.61,3.13-2.61,5.22,0,1.64.45,2.95,1.36,3.92.91.97,2.12,1.72,3.64,2.24,1.52.52,3.19.95,5,1.27,1.81.32,3.63.68,5.44,1.08,1.81.4,3.48.96,5,1.68,1.52.72,2.73,1.72,3.64,2.98.91,1.27,1.36,2.97,1.36,5.11s-.58,4.01-1.73,5.6c-1.15,1.59-2.86,2.84-5.11,3.73-2.26.9-5.03,1.34-8.31,1.34Z"/>
      </g>
    </g>
  </g>
</svg>