<svg width="16" height="16" viewBox="0 0 16 16" fill="none" xmlns="http://www.w3.org/2000/svg">
<rect width="16" height="16" rx="8" fill="#34C759"/>
<path d="M7.80441 12.6439C12.0889 12.1416 14.4588 9.19189 12.2145 3C10.4553 4.29723 8.05065 5.14174 6.8434 6.87863C7.63336 7.60909 8.28533 8.4179 8.46629 9.47484C9.55621 8.07487 10.7494 6.80028 11.3774 5.3829C10.7337 8.78443 9.72478 10.0703 8.17295 11.809C8.06521 12.0953 7.94217 12.3749 7.80441 12.6465V12.6439ZM6.57319 12.9922C3.25385 12.1416 1.66897 9.62459 4.10249 5.1548C6.06913 7.15027 9.53886 8.4179 7.27474 12.63C7.22953 12.7183 7.17903 12.8035 7.12352 12.8851C6.71614 10.8025 5.08911 9.15445 4.6115 7.40623C4.72223 10.2628 5.50393 11.0968 6.71449 13C6.66739 13 6.62029 12.9948 6.57319 12.9887V12.9922Z" fill="white"/>
</svg>
